<svg id="Layer_1" data-name="Layer 1" height="40" xmlns="http://www.w3.org/2000/svg" xmlns:xlink="http://www.w3.org/1999/xlink" viewBox="0 0 895.98 613.43"><defs><style>.cls-1,.cls-3{stroke:#ed1c24;stroke-miterlimit:10;stroke-width:3px;}.cls-1{fill:url(#linear-gradient);}.cls-2{fill:#ec2027;}.cls-3{fill:url(#linear-gradient-2);}</style><linearGradient id="linear-gradient" x1="267.39" y1="189.89" x2="267.39" y2="858.27" gradientUnits="userSpaceOnUse"><stop offset="0" stop-color="#ed1c24" stop-opacity="0.4"/><stop offset="0.19" stop-color="#ed1c24" stop-opacity="0.56"/><stop offset="0.45" stop-color="#ed1c24" stop-opacity="0.75"/><stop offset="0.68" stop-color="#ed1c24" stop-opacity="0.89"/><stop offset="0.87" stop-color="#ed1c24" stop-opacity="0.97"/><stop offset="1" stop-color="#ed1c24"/></linearGradient><linearGradient id="linear-gradient-2" x1="706.78" y1="216.03" x2="706.78" y2="964.81" gradientTransform="translate(121.17 -188.03) rotate(11.28)" xlink:href="#linear-gradient"/></defs><title>RRCM_Gear</title><path class="cls-1" d="M476,514.38l-40.27-4.86A13,13,0,0,1,424.5,499a159.22,159.22,0,0,0-7-25.6,13,13,0,0,1,4.2-14.73L453.17,434a13,13,0,0,0,2.21-18.32l-33-42.07a13.06,13.06,0,0,0-18.33-2.21l-31.22,24.5a13,13,0,0,1-15.37.53A158.34,158.34,0,0,0,333.8,383a13,13,0,0,1-7.49-13.41l4.88-40.43a13.05,13.05,0,0,0-11.39-14.52l-53.08-6.41a13.07,13.07,0,0,0-14.53,11.4l-4.91,40.73a13,13,0,0,1-10.41,11.23,157.35,157.35,0,0,0-25.21,7.15,13,13,0,0,1-14.83-4.17l-24.49-31.22A13.06,13.06,0,0,0,154,341.18l-42.06,33a13.06,13.06,0,0,0-2.21,18.33L134.45,424A13,13,0,0,1,135,439.3a159.85,159.85,0,0,0-13.29,24,13.06,13.06,0,0,1-13.5,7.69l-40-4.82a13,13,0,0,0-14.52,11.39l-6.41,53.08a13.05,13.05,0,0,0,11.4,14.52l41.23,5a13,13,0,0,1,11.21,10.33,158.75,158.75,0,0,0,6.46,22.69,13.06,13.06,0,0,1-4.19,14.78L82,622.65A13.06,13.06,0,0,0,79.75,641l33,42.06a13,13,0,0,0,18.32,2.22l31.22-24.5a13,13,0,0,1,15.38-.52,159.72,159.72,0,0,0,23.23,13.14,13,13,0,0,1,7.46,13.4l-5,41a13.07,13.07,0,0,0,11.4,14.53l53.08,6.4a13.05,13.05,0,0,0,14.52-11.39l5-41.05a13,13,0,0,1,10.46-11.24A158.49,158.49,0,0,0,322,678.39a13.07,13.07,0,0,1,14.72,4.21l26,33.15A13,13,0,0,0,381,718l42.07-33a13.06,13.06,0,0,0,2.21-18.33L399.71,634a13,13,0,0,1-.5-15.42,158.56,158.56,0,0,0,13-22.77,13,13,0,0,1,13.37-7.4l40.9,4.94A13.06,13.06,0,0,0,481,582l6.4-53.08A13,13,0,0,0,476,514.38ZM370.74,540.75A103.92,103.92,0,1,1,280,425.13,103.92,103.92,0,0,1,370.74,540.75Z" transform="translate(-45.76 -212.19)"/><path class="cls-2" d="M581.54,265.49c3.84-3.75,8-7.23,12.17-10.59s8.57-6.54,13-9.56A211.51,211.51,0,0,1,634.9,229.2a184,184,0,0,1,30.6-11.4A160.69,160.69,0,0,1,698,212.43a146.52,146.52,0,0,1,33.17,1.84,152.61,152.61,0,0,1,32.1,9.25,175.48,175.48,0,0,1,29.56,15.65,220.74,220.74,0,0,1,26.44,20.37l-13.88,5.65.17-25.38,18,.67-1.72,25.32-1.26,18.47-12.62-12.83A206.8,206.8,0,0,0,784.6,251a162,162,0,0,0-26.36-16.19,140.64,140.64,0,0,0-29.12-10.44,137.46,137.46,0,0,0-30.91-3.69,153,153,0,0,0-31.28,3.14A179.39,179.39,0,0,0,636.55,233a209.05,209.05,0,0,0-28.7,14.1q-6.92,4.06-13.52,8.65A159.4,159.4,0,0,0,581.54,265.49Z" transform="translate(-45.76 -212.19)"/><path class="cls-3" d="M930.16,564.29,887,550.12a14.59,14.59,0,0,1-10.06-14,176.39,176.39,0,0,0-2.12-29.67,14.6,14.6,0,0,1,7.85-15.26l40-20.25a14.63,14.63,0,0,0,6.45-19.65l-27-53.45a14.62,14.62,0,0,0-19.65-6.44l-39.66,20.07a14.6,14.6,0,0,1-17-2.79,177.61,177.61,0,0,0-23.07-19.83,14.61,14.61,0,0,1-5.29-16.38l14.22-43.35a14.62,14.62,0,0,0-9.33-18.45L745.36,292a14.62,14.62,0,0,0-18.45,9.34L712.58,345a14.58,14.58,0,0,1-13.89,10.06,177.1,177.1,0,0,0-29.27,2.33,14.6,14.6,0,0,1-15.37-7.83L634,309.88a14.63,14.63,0,0,0-19.65-6.44l-53.45,27a14.62,14.62,0,0,0-6.44,19.65l20.25,40a14.59,14.59,0,0,1-2.7,16.93,177.68,177.68,0,0,0-19.86,23.46A14.66,14.66,0,0,1,535.61,436L492.75,422a14.62,14.62,0,0,0-18.45,9.34l-18.67,56.91A14.63,14.63,0,0,0,465,506.67l44.21,14.5A14.63,14.63,0,0,1,519.24,535a176.13,176.13,0,0,0,2.12,26.34,14.66,14.66,0,0,1-7.84,15.33l-40,20.25a14.62,14.62,0,0,0-6.45,19.65l27,53.44a14.63,14.63,0,0,0,19.65,6.45l39.67-20.07a14.58,14.58,0,0,1,17,2.79,178,178,0,0,0,22.63,19.53A14.59,14.59,0,0,1,598.32,695l-14.44,44a14.64,14.64,0,0,0,9.34,18.46l56.91,18.66a14.63,14.63,0,0,0,18.46-9.33l14.43-44a14.61,14.61,0,0,1,14-10.06,178.27,178.27,0,0,0,28-2,14.61,14.61,0,0,1,15.24,7.85l21.32,42.12a14.62,14.62,0,0,0,19.65,6.44l53.44-27a14.63,14.63,0,0,0,6.45-19.65L820.1,679A14.62,14.62,0,0,1,822.93,662a177.14,177.14,0,0,0,19.29-22.16,14.6,14.6,0,0,1,16.31-5.2L902.38,649a14.61,14.61,0,0,0,18.45-9.34l18.67-56.91A14.61,14.61,0,0,0,930.16,564.29Zm-121.45,5.9a116.42,116.42,0,1,1-74.34-146.91A116.42,116.42,0,0,1,808.71,570.19Z" transform="translate(-45.76 -212.19)"/><path class="cls-2" d="M381.93,772.32c-3.84,3.75-8,7.23-12.17,10.59s-8.57,6.54-13,9.56a212.26,212.26,0,0,1-28.15,16.14A184.21,184.21,0,0,1,298,820a160.58,160.58,0,0,1-32.49,5.37,147,147,0,0,1-33.16-1.84,152.52,152.52,0,0,1-32.11-9.25,175.86,175.86,0,0,1-29.56-15.65,222.59,222.59,0,0,1-26.44-20.37l13.88-5.65L157.93,798l-18-.67L141.67,772l1.25-18.47,12.63,12.83a206.7,206.7,0,0,0,23.32,20.47A162.4,162.4,0,0,0,205.23,803a140.64,140.64,0,0,0,29.12,10.44,137.53,137.53,0,0,0,30.91,3.69A152.22,152.22,0,0,0,296.54,814a178.55,178.55,0,0,0,30.39-9.17,209.5,209.5,0,0,0,28.69-14.1q6.92-4.07,13.53-8.66A158.58,158.58,0,0,0,381.93,772.32Z" transform="translate(-45.76 -212.19)"/></svg>