<svg id="Layer_1" data-name="Layer 1" xmlns="http://www.w3.org/2000/svg" xmlns:xlink="http://www.w3.org/1999/xlink" viewBox="0 0 1768.93 613.43"><defs><style>.cls-1,.cls-3{stroke:#ed1c24;stroke-miterlimit:10;stroke-width:3px;}.cls-1{fill:url(#linear-gradient);}.cls-2{fill:#ec2027;}.cls-3{fill:url(#linear-gradient-2);}.cls-4{font-size:299px;font-family:Cambria-Bold, Cambria;font-weight:700;}.cls-4,.cls-6{fill:#ed1c24;}.cls-5{letter-spacing:-0.02em;}</style><linearGradient id="linear-gradient" x1="267.39" y1="189.89" x2="267.39" y2="858.27" gradientUnits="userSpaceOnUse"><stop offset="0" stop-color="#ed1c24" stop-opacity="0.4"/><stop offset="0.19" stop-color="#ed1c24" stop-opacity="0.56"/><stop offset="0.45" stop-color="#ed1c24" stop-opacity="0.75"/><stop offset="0.68" stop-color="#ed1c24" stop-opacity="0.89"/><stop offset="0.87" stop-color="#ed1c24" stop-opacity="0.97"/><stop offset="1" stop-color="#ed1c24"/></linearGradient><linearGradient id="linear-gradient-2" x1="706.78" y1="216.03" x2="706.78" y2="964.81" gradientTransform="translate(121.17 -188.03) rotate(11.28)" xlink:href="#linear-gradient"/></defs><title>RRCM4</title><path class="cls-1" d="M476,514.38l-40.27-4.86A13,13,0,0,1,424.5,499a159.22,159.22,0,0,0-7-25.6,13,13,0,0,1,4.2-14.73L453.17,434a13,13,0,0,0,2.21-18.32l-33-42.07a13.06,13.06,0,0,0-18.33-2.21l-31.22,24.5a13,13,0,0,1-15.37.53A158.34,158.34,0,0,0,333.8,383a13,13,0,0,1-7.49-13.41l4.88-40.43a13.05,13.05,0,0,0-11.39-14.52l-53.08-6.41a13.07,13.07,0,0,0-14.53,11.4l-4.91,40.73a13,13,0,0,1-10.41,11.23,157.35,157.35,0,0,0-25.21,7.15,13,13,0,0,1-14.83-4.17l-24.49-31.22A13.06,13.06,0,0,0,154,341.18l-42.06,33a13.06,13.06,0,0,0-2.21,18.33L134.45,424A13,13,0,0,1,135,439.3a159.85,159.85,0,0,0-13.29,24,13.06,13.06,0,0,1-13.5,7.69l-40-4.82a13,13,0,0,0-14.52,11.39l-6.41,53.08a13.05,13.05,0,0,0,11.4,14.52l41.23,5a13,13,0,0,1,11.21,10.33,158.75,158.75,0,0,0,6.46,22.69,13.06,13.06,0,0,1-4.19,14.78L82,622.65A13.06,13.06,0,0,0,79.75,641l33,42.06a13,13,0,0,0,18.32,2.22l31.22-24.5a13,13,0,0,1,15.38-.52,159.72,159.72,0,0,0,23.23,13.14,13,13,0,0,1,7.46,13.4l-5,41a13.07,13.07,0,0,0,11.4,14.53l53.08,6.4a13.05,13.05,0,0,0,14.52-11.39l5-41.05a13,13,0,0,1,10.46-11.24A158.49,158.49,0,0,0,322,678.39a13.07,13.07,0,0,1,14.72,4.21l26,33.15A13,13,0,0,0,381,718l42.07-33a13.06,13.06,0,0,0,2.21-18.33L399.71,634a13,13,0,0,1-.5-15.42,158.56,158.56,0,0,0,13-22.77,13,13,0,0,1,13.37-7.4l40.9,4.94A13.06,13.06,0,0,0,481,582l6.4-53.08A13,13,0,0,0,476,514.38ZM370.74,540.75A103.92,103.92,0,1,1,280,425.13,103.92,103.92,0,0,1,370.74,540.75Z" transform="translate(-45.76 -212.19)"/><path class="cls-2" d="M581.54,265.49c3.84-3.75,8-7.23,12.17-10.59s8.57-6.54,13-9.56A211.51,211.51,0,0,1,634.9,229.2a184,184,0,0,1,30.6-11.4A160.69,160.69,0,0,1,698,212.43a146.52,146.52,0,0,1,33.17,1.84,152.61,152.61,0,0,1,32.1,9.25,175.48,175.48,0,0,1,29.56,15.65,220.74,220.74,0,0,1,26.44,20.37l-13.88,5.65.17-25.38,18,.67-1.72,25.32-1.26,18.47-12.62-12.83A206.8,206.8,0,0,0,784.6,251a162,162,0,0,0-26.36-16.19,140.64,140.64,0,0,0-29.12-10.44,137.46,137.46,0,0,0-30.91-3.69,153,153,0,0,0-31.28,3.14A179.39,179.39,0,0,0,636.55,233a209.05,209.05,0,0,0-28.7,14.1q-6.92,4.06-13.52,8.65A159.4,159.4,0,0,0,581.54,265.49Z" transform="translate(-45.76 -212.19)"/><path class="cls-3" d="M930.16,564.29,887,550.12a14.59,14.59,0,0,1-10.06-14,176.39,176.39,0,0,0-2.12-29.67,14.6,14.6,0,0,1,7.85-15.26l40-20.25a14.63,14.63,0,0,0,6.45-19.65l-27-53.45a14.62,14.62,0,0,0-19.65-6.44l-39.66,20.07a14.6,14.6,0,0,1-17-2.79,177.61,177.61,0,0,0-23.07-19.83,14.61,14.61,0,0,1-5.29-16.38l14.22-43.35a14.62,14.62,0,0,0-9.33-18.45L745.36,292a14.62,14.62,0,0,0-18.45,9.34L712.58,345a14.58,14.58,0,0,1-13.89,10.06,177.1,177.1,0,0,0-29.27,2.33,14.6,14.6,0,0,1-15.37-7.83L634,309.88a14.63,14.63,0,0,0-19.65-6.44l-53.45,27a14.62,14.62,0,0,0-6.44,19.65l20.25,40a14.59,14.59,0,0,1-2.7,16.93,177.68,177.68,0,0,0-19.86,23.46A14.66,14.66,0,0,1,535.61,436L492.75,422a14.62,14.62,0,0,0-18.45,9.34l-18.67,56.91A14.63,14.63,0,0,0,465,506.67l44.21,14.5A14.63,14.63,0,0,1,519.24,535a176.13,176.13,0,0,0,2.12,26.34,14.66,14.66,0,0,1-7.84,15.33l-40,20.25a14.62,14.62,0,0,0-6.45,19.65l27,53.44a14.63,14.63,0,0,0,19.65,6.45l39.67-20.07a14.58,14.58,0,0,1,17,2.79,178,178,0,0,0,22.63,19.53A14.59,14.59,0,0,1,598.32,695l-14.44,44a14.64,14.64,0,0,0,9.34,18.46l56.91,18.66a14.63,14.63,0,0,0,18.46-9.33l14.43-44a14.61,14.61,0,0,1,14-10.06,178.27,178.27,0,0,0,28-2,14.61,14.61,0,0,1,15.24,7.85l21.32,42.12a14.62,14.62,0,0,0,19.65,6.44l53.44-27a14.63,14.63,0,0,0,6.45-19.65L820.1,679A14.62,14.62,0,0,1,822.93,662a177.14,177.14,0,0,0,19.29-22.16,14.6,14.6,0,0,1,16.31-5.2L902.38,649a14.61,14.61,0,0,0,18.45-9.34l18.67-56.91A14.61,14.61,0,0,0,930.16,564.29Zm-121.45,5.9a116.42,116.42,0,1,1-74.34-146.91A116.42,116.42,0,0,1,808.71,570.19Z" transform="translate(-45.76 -212.19)"/><text class="cls-4" transform="translate(955.58 416.23)">R<tspan class="cls-5" x="197.82" y="0">R</tspan><tspan x="388.93" y="0">CM</tspan></text><path class="cls-6" d="M1016.87,681.4l29.54-.45,29.54-.34,59.08-.67q59.07-.53,118.15-.87c39.39-.27,78.77-.34,118.16-.5l59.08-.09,29.54,0h7l-.16,0a1.22,1.22,0,0,0-.9.8l.55-1.72,1.12-3.51L1472,660l2.27-7,1.13-3.52.29-.87.07-.22a2.38,2.38,0,0,1,.12-.34,4.35,4.35,0,0,1,.55-1.07,4.78,4.78,0,0,1,1.93-1.61,4.86,4.86,0,0,1,2.39-.4,4.71,4.71,0,0,1,2.29.82,4.84,4.84,0,0,1,1.61,1.93,8.4,8.4,0,0,1,.42,1.35l.24.89,1,3.57,1.89,7.14,7.55,28.55,3.78,14.28,1,3.57.47,1.78.06.23c0,.06,0,.19,0,.1a.89.89,0,0,0-.12-.24,1.11,1.11,0,0,0-.47-.44,1.07,1.07,0,0,0-1.09.05,1.17,1.17,0,0,0-.43.46.37.37,0,0,0-.05.11l.07-.18.16-.44,1.26-3.47,10.08-27.76,2.54-6.94,1.26-3.47.64-1.73.15-.44s.09-.23.17-.4a3.56,3.56,0,0,1,.27-.51,4.39,4.39,0,0,1,1.75-1.64,4.57,4.57,0,0,1,4.5.13,4.45,4.45,0,0,1,1.64,1.75,3,3,0,0,1,.23.52c.06.15.15.43.16.48l.12.45,1,3.56,1.9,7.14,1,3.57.48,1.78c0,.09,0,.16,0,.09a.41.41,0,0,0,0-.09.85.85,0,0,0-.13-.22,1.11,1.11,0,0,0-.45-.3.91.91,0,0,0-.88.19,1,1,0,0,0-.29.4s0,.09,0,0l.06-.22.12-.45,1-3.55,4-14.23,2-7.12.25-.89.13-.44a3,3,0,0,1,.08-.29c.06-.17.12-.34.19-.51a4.35,4.35,0,0,1,1.45-1.77,4.25,4.25,0,0,1,2.1-.78,4.31,4.31,0,0,1,4,1.79,4.89,4.89,0,0,1,.52,1,2.31,2.31,0,0,1,.11.33l.08.22.28.87,4.62,14,2.29,7,.29.88a.7.7,0,0,0-.19-.28.74.74,0,0,0-.32-.16h.4l3.69,0,14.77.09q59.08.3,118.16.87l59.07.68,29.54.34,29.54.45-29.54.45-29.54.35-59.07.67q-59.09.52-118.16.87l-14.77.09-3.69,0h-.46s-.25,0-.43,0a3.31,3.31,0,0,1-.55-.08,4.09,4.09,0,0,1-1.94-1,4.24,4.24,0,0,1-1.19-1.81l-.3-.87-2.38-7-4.72-14-.3-.87-.07-.22c0-.07-.06-.18,0-.11a1,1,0,0,0,.09.17.86.86,0,0,0,.75.36.89.89,0,0,0,.69-.5l0-.08c0-.06,0,.11,0,.16l-.12.44-.24.89-1.93,7.13-3.86,14.26-1,3.56-.12.45-.06.22-.13.4a4.41,4.41,0,0,1-1.31,1.92,4.5,4.5,0,0,1-4.35.82,4.32,4.32,0,0,1-2-1.33,4.19,4.19,0,0,1-.64-1,4.65,4.65,0,0,1-.2-.52,1.83,1.83,0,0,1-.11-.35l-.49-1.78-1-3.56-2-7.13-1-3.56-.12-.44c0-.1,0,0,0,0l0,.11a1.09,1.09,0,0,0,.39.41,1,1,0,0,0,1,0,1.16,1.16,0,0,0,.42-.4l.06-.1s0-.1,0,0l-.16.44-.62,1.74-1.24,3.47-2.48,7-10,27.8-1.25,3.47-.16.44-.09.25-.24.53a4.65,4.65,0,0,1-6.28,2,4.71,4.71,0,0,1-1.82-1.67,4.58,4.58,0,0,1-.49-1.09,2.43,2.43,0,0,1-.1-.34l-.06-.22-.48-1.78-.95-3.57-3.81-14.27-7.63-28.54-1.9-7.13-1-3.57-.24-.89c0-.26-.23-.78-.09-.42a1.27,1.27,0,0,0,1,.74,1.11,1.11,0,0,0,.58-.11,1.24,1.24,0,0,0,.53-.43,1.37,1.37,0,0,0,.14-.26c0-.09,0,0,0,.1l-.07.22-.28.88-1.13,3.51-2.26,7-4.54,14.06-1.14,3.51-.58,1.8a4.75,4.75,0,0,1-3.55,3.12,4.38,4.38,0,0,1-.62.08l-.43,0H1460l-29.54,0-59.08-.09c-39.39-.17-78.77-.23-118.16-.5s-78.77-.52-118.15-.87l-59.08-.68-29.54-.34Z" transform="translate(-45.76 -212.19)"/><path class="cls-2" d="M381.93,772.32c-3.84,3.75-8,7.23-12.17,10.59s-8.57,6.54-13,9.56a212.26,212.26,0,0,1-28.15,16.14A184.21,184.21,0,0,1,298,820a160.58,160.58,0,0,1-32.49,5.37,147,147,0,0,1-33.16-1.84,152.52,152.52,0,0,1-32.11-9.25,175.86,175.86,0,0,1-29.56-15.65,222.59,222.59,0,0,1-26.44-20.37l13.88-5.65L157.93,798l-18-.67L141.67,772l1.25-18.47,12.63,12.83a206.7,206.7,0,0,0,23.32,20.47A162.4,162.4,0,0,0,205.23,803a140.64,140.64,0,0,0,29.12,10.44,137.53,137.53,0,0,0,30.91,3.69A152.22,152.22,0,0,0,296.54,814a178.55,178.55,0,0,0,30.39-9.17,209.5,209.5,0,0,0,28.69-14.1q6.92-4.07,13.53-8.66A158.58,158.58,0,0,0,381.93,772.32Z" transform="translate(-45.76 -212.19)"/></svg>